<svg width="300" height="225" viewBox="0 0 300 225" fill="none" xmlns="http://www.w3.org/2000/svg">
<rect width="300" height="224" transform="translate(0 0.486694)" fill="#1D70B8"/>
<path fill-rule="evenodd" clip-rule="evenodd" d="M76.1254 70.6371C76.1254 68.6661 76.1549 66.6933 76.1844 64.7204C76.2527 60.145 76.3211 55.5697 76.0218 51.018C75.697 46.0736 79.0548 44.5586 82.7305 44.531C85.4166 44.5109 88.1036 44.5192 90.7906 44.5275C95.4709 44.542 100.151 44.5565 104.826 44.4208C106.422 44.3726 108.287 43.5118 109.51 42.4376C110.576 41.5012 111.59 40.4987 112.603 39.4967L112.603 39.4967C115.456 36.6743 118.305 33.8564 122.312 32.535C130.762 29.7461 139.191 29.8356 147.655 32.6177C149.099 33.0928 150.868 32.9275 152.422 32.6796C153.639 32.4858 154.85 32.1715 156.059 31.8578C158.029 31.3468 159.992 30.8377 161.957 30.8548L162.486 30.8588C168.544 30.9045 174.756 30.9514 180.556 32.3766C183.39 33.0718 185.892 35.3898 188.301 37.6223C188.923 38.1985 189.539 38.7689 190.153 39.3043C191.403 40.3948 192.479 41.6792 193.556 42.9656L193.556 42.9657C194.384 43.9537 195.213 44.9429 196.122 45.8463C196.716 46.4385 197.98 46.5487 198.941 46.5556C202.527 46.5907 206.113 46.5883 209.701 46.5858C212.444 46.5839 215.188 46.582 217.934 46.5969C222.059 46.6176 224 48.5595 224 52.5605V90.7866C224 95.6483 222.784 96.8879 218.017 96.8948C216.039 96.8967 214.061 96.9107 212.082 96.9248H212.082C206.922 96.9615 201.762 96.9982 196.612 96.819C193.538 96.7088 191.735 97.969 190.132 100.276C187.797 103.65 184.625 105.833 180.494 106.591C179.822 106.712 179.199 107.254 178.629 107.749L178.629 107.749C178.554 107.814 178.48 107.878 178.407 107.94C177.881 108.395 177.385 108.894 176.89 109.392L176.89 109.392L176.89 109.392C176.026 110.261 175.165 111.127 174.151 111.749C173.075 112.404 172.002 113.07 170.929 113.737L170.929 113.738C166.676 116.381 162.411 119.033 157.86 120.99C153.417 122.898 148.401 123.813 143.551 124.357C135.578 125.246 128.918 121.438 123.252 116.493C119.472 113.192 115.944 109.606 112.415 106.019C109.907 103.47 107.398 100.92 104.798 98.4717C103.651 97.3975 101.502 97.0118 99.8028 96.9636C95.4863 96.844 91.1664 96.8607 86.8479 96.8774C84.9523 96.8847 83.0569 96.8921 81.1621 96.8879C77.6661 96.881 76.1876 95.5106 76.153 91.9917C76.1086 86.9103 76.1171 81.8255 76.1256 76.7421C76.1289 74.7091 76.1323 72.6763 76.1323 70.644L76.1254 70.6371ZM101.696 87.0817C105.751 87.3365 108.736 88.9892 111.431 91.6887L111.855 92.115L111.855 92.1152C118.264 98.5504 124.688 105.001 131.522 110.97C136.324 115.171 142.107 116.418 148.304 113.408C149.458 112.85 150.93 112.768 152.256 112.775C155.697 112.795 158.309 111.659 160.243 108.615C161.024 107.383 162.751 106.095 164.126 105.999C168.161 105.716 170.324 103.175 171.857 100.124C172.901 98.0379 174.068 97.246 176.265 97.5696C179.665 98.0723 182.062 96.3576 183.347 93.5205C184.535 90.883 184.48 88.032 182.539 85.5116C181.277 83.8785 180.033 82.2301 178.789 80.5815C176.292 77.2735 173.795 73.9644 171.153 70.7749C167.297 66.1197 166.904 66.2299 162.889 70.6785C162.633 70.9618 162.43 71.2901 162.228 71.6184C162.076 71.8646 161.924 72.1108 161.749 72.3381C157.293 78.1019 149.914 82.0685 142.238 80.4571C131.681 78.2466 122.907 64.3086 132.414 53.4764C135.26 50.2329 138.086 46.9757 140.863 43.6771C141.336 43.1188 141.715 42.4784 142.181 41.6891C142.416 41.2907 142.674 40.8545 142.977 40.3717C141.541 40.3717 140.186 40.3963 138.887 40.42C136.126 40.4702 133.621 40.5158 131.135 40.3097C126.859 39.9585 123.701 41.8936 120.751 44.4897C119.369 45.7017 117.994 46.9619 116.854 48.3943C113.642 52.4297 109.931 55.1566 104.383 54.1857C102.532 53.862 101.668 54.7779 101.675 56.7336C101.71 64.036 101.705 71.3384 101.7 78.7944V78.7955C101.698 81.5343 101.696 84.2939 101.696 87.0817ZM196.82 87.853C196.937 87.6845 197.054 87.5142 197.172 87.344C197.289 87.1733 197.407 87.0027 197.524 86.8338V56.9127C196.774 56.6647 196.02 56.4769 195.293 56.2957C193.739 55.9083 192.307 55.5514 191.286 54.7022C189.827 53.4966 188.667 51.9376 187.506 50.3762C186.929 49.6008 186.352 48.8248 185.738 48.0913C181.482 43.016 176.79 38.9118 169.363 40.3235C167.477 40.6816 165.425 40.6127 163.511 40.3304C157.942 39.5178 154.108 42.2034 150.826 46.1837C150.424 46.6705 150.032 47.1675 149.64 47.6648L149.64 47.6649C149.123 48.3214 148.605 48.9784 148.063 49.6131C147.106 50.7307 146.133 51.835 145.159 52.9392C143.235 55.1213 141.312 57.3029 139.523 59.5846C136.103 63.9574 138.134 69.4045 143.509 70.706C148.125 71.8285 151.517 70.3479 154.695 66.4502C158.074 62.3184 161.66 58.3381 165.384 54.5162C166.344 53.5315 168.582 52.5812 169.508 53.0425C170.631 53.6103 171.42 54.8905 172.187 56.1346C172.406 56.4899 172.623 56.8423 172.845 57.1743C173.066 57.5039 173.183 57.9107 173.299 58.3152C173.431 58.7729 173.561 59.2276 173.84 59.5639C174.892 60.8337 175.993 62.0662 177.093 63.2981L177.093 63.2982C178.868 65.2863 180.642 67.2727 182.207 69.4114C184.214 72.153 186.093 74.9885 187.973 77.8241C189.619 80.3089 191.266 82.7938 192.999 85.2155C193.578 86.0288 194.554 86.5596 195.527 87.0888C195.971 87.3304 196.415 87.5716 196.82 87.8392V87.853ZM92.5817 84.5445C92.5817 86.6362 90.8804 88.332 88.7818 88.332C86.6831 88.332 84.9818 86.6362 84.9818 84.5445C84.9818 82.4527 86.6831 80.757 88.7818 80.757C90.8804 80.757 92.5817 82.4527 92.5817 84.5445ZM211.072 87.6433C213.171 87.6433 214.872 85.9476 214.872 83.8558C214.872 81.7641 213.171 80.0683 211.072 80.0683C208.973 80.0683 207.272 81.7641 207.272 83.8558C207.272 85.9476 208.973 87.6433 211.072 87.6433Z" fill="white"/>
<path d="M68.8711 171.883C68.8711 170.078 69.1406 168.391 69.6797 166.821C70.2305 165.239 71.0156 163.868 72.0352 162.707C73.0547 161.536 74.291 160.616 75.7441 159.948C77.1973 159.268 78.832 158.928 80.6484 158.928C81.9609 158.928 83.1738 159.098 84.2871 159.438C85.4121 159.778 86.4199 160.258 87.3105 160.879C88.2129 161.5 88.9863 162.25 89.6309 163.129C90.2754 164.008 90.7852 164.993 91.1602 166.082L86.2559 167.717C86.1152 167.248 85.8926 166.768 85.5879 166.276C85.2832 165.772 84.8965 165.321 84.4277 164.922C83.959 164.512 83.4082 164.178 82.7754 163.92C82.1543 163.662 81.457 163.534 80.6836 163.534C79.5234 163.534 78.5273 163.774 77.6953 164.254C76.875 164.723 76.2012 165.35 75.6738 166.135C75.1465 166.909 74.7539 167.793 74.4961 168.789C74.25 169.774 74.127 170.782 74.127 171.813V171.953C74.127 172.996 74.25 174.016 74.4961 175.012C74.7539 175.996 75.1465 176.875 75.6738 177.649C76.2012 178.422 76.875 179.049 77.6953 179.53C78.5273 179.998 79.5234 180.233 80.6836 180.233C81.457 180.233 82.1543 180.104 82.7754 179.846C83.4082 179.588 83.959 179.26 84.4277 178.862C84.8965 178.452 85.2832 178 85.5879 177.508C85.8926 177.016 86.1152 176.536 86.2559 176.067L91.1602 177.684C90.7852 178.774 90.2754 179.758 89.6309 180.637C88.9863 181.516 88.2129 182.272 87.3105 182.905C86.4199 183.526 85.4121 184.006 84.2871 184.346C83.1738 184.674 81.9609 184.838 80.6484 184.838C78.832 184.838 77.1973 184.504 75.7441 183.836C74.291 183.168 73.0547 182.248 72.0352 181.077C71.0156 179.905 70.2305 178.534 69.6797 176.963C69.1406 175.393 68.8711 173.7 68.8711 171.883ZM102.586 165.291C103.98 165.291 105.246 165.543 106.383 166.047C107.52 166.539 108.492 167.225 109.301 168.104C110.109 168.983 110.73 170.02 111.164 171.215C111.609 172.411 111.832 173.7 111.832 175.082C111.832 176.477 111.609 177.772 111.164 178.967C110.719 180.151 110.092 181.176 109.283 182.043C108.475 182.911 107.502 183.596 106.365 184.1C105.229 184.592 103.969 184.838 102.586 184.838C101.191 184.838 99.9258 184.592 98.7891 184.1C97.6523 183.596 96.6797 182.911 95.8711 182.043C95.0625 181.176 94.4355 180.151 93.9902 178.967C93.5449 177.772 93.3223 176.477 93.3223 175.082C93.3223 173.7 93.5391 172.411 93.9727 171.215C94.418 170.02 95.0449 168.983 95.8535 168.104C96.6621 167.225 97.6348 166.539 98.7715 166.047C99.9199 165.543 101.191 165.291 102.586 165.291ZM102.586 180.338C103.277 180.338 103.887 180.209 104.414 179.952C104.953 179.694 105.404 179.336 105.768 178.879C106.131 178.422 106.406 177.877 106.594 177.245C106.781 176.6 106.875 175.897 106.875 175.135V175.012C106.875 174.25 106.781 173.553 106.594 172.92C106.406 172.276 106.131 171.725 105.768 171.268C105.404 170.799 104.953 170.436 104.414 170.178C103.887 169.92 103.277 169.791 102.586 169.791C101.895 169.791 101.279 169.92 100.74 170.178C100.213 170.436 99.7676 170.799 99.4043 171.268C99.041 171.725 98.7656 172.276 98.5781 172.92C98.3906 173.553 98.2969 174.25 98.2969 175.012V175.135C98.2969 175.897 98.3906 176.6 98.5781 177.245C98.7656 177.877 99.041 178.422 99.4043 178.879C99.7676 179.336 100.213 179.694 100.74 179.952C101.279 180.209 101.895 180.338 102.586 180.338ZM115.049 165.661H119.9V167.278C120.158 167.02 120.445 166.774 120.762 166.539C121.09 166.293 121.447 166.082 121.834 165.907C122.221 165.719 122.648 165.573 123.117 165.467C123.598 165.35 124.125 165.291 124.699 165.291C125.719 165.291 126.633 165.461 127.441 165.801C128.25 166.129 128.93 166.586 129.48 167.172C130.043 167.758 130.471 168.444 130.764 169.229C131.057 170.014 131.203 170.864 131.203 171.778V184.487H126.352V173.536C126.352 172.868 126.275 172.305 126.123 171.848C125.971 171.379 125.76 171.004 125.49 170.723C125.232 170.43 124.922 170.219 124.559 170.09C124.207 169.95 123.82 169.879 123.398 169.879C122.906 169.879 122.443 169.967 122.01 170.143C121.588 170.319 121.219 170.588 120.902 170.952C120.586 171.303 120.34 171.748 120.164 172.287C119.988 172.827 119.9 173.459 119.9 174.186V184.487H115.049V165.661ZM142.207 178.879C142.207 179.102 142.236 179.313 142.295 179.512C142.354 179.711 142.453 179.887 142.594 180.039C142.746 180.18 142.957 180.291 143.227 180.373C143.496 180.455 143.842 180.496 144.264 180.496C144.439 180.496 144.639 180.491 144.861 180.479C145.084 180.455 145.307 180.432 145.529 180.409C145.752 180.385 145.957 180.356 146.145 180.321C146.344 180.286 146.508 180.256 146.637 180.233L147.076 184.522C146.619 184.58 146.145 184.633 145.652 184.68C145.23 184.727 144.762 184.762 144.246 184.786C143.73 184.821 143.209 184.838 142.682 184.838C141.006 184.838 139.699 184.457 138.762 183.696C137.824 182.934 137.355 181.721 137.355 180.057V169.879H133.963V165.661H137.355V160.334L142.207 159.034V165.661H147.146V169.879H142.207V178.879ZM160.787 170.371H160.277C159.586 170.371 158.924 170.442 158.291 170.582C157.67 170.723 157.119 170.981 156.639 171.356C156.158 171.719 155.771 172.223 155.479 172.868C155.197 173.512 155.057 174.338 155.057 175.346V184.487H150.205V165.661H155.057V167.787C155.256 167.471 155.514 167.166 155.83 166.873C156.146 166.58 156.516 166.323 156.938 166.1C157.359 165.866 157.834 165.678 158.361 165.537C158.889 165.397 159.457 165.327 160.066 165.327H160.787V170.371ZM169.893 176.84C169.295 176.934 168.814 177.145 168.451 177.473C168.088 177.789 167.906 178.223 167.906 178.774C167.906 179.383 168.129 179.911 168.574 180.356C169.02 180.789 169.676 181.006 170.543 181.006C171.457 181.006 172.178 180.743 172.705 180.215C173.232 179.688 173.496 178.991 173.496 178.123V176.225L169.893 176.84ZM174.287 182.711C174.088 182.934 173.842 183.174 173.549 183.432C173.268 183.678 172.928 183.907 172.529 184.118C172.143 184.317 171.686 184.487 171.158 184.627C170.631 184.768 170.039 184.838 169.383 184.838C168.445 184.838 167.578 184.692 166.781 184.399C165.996 184.094 165.305 183.672 164.707 183.133C164.109 182.594 163.641 181.973 163.301 181.27C162.961 180.555 162.791 179.782 162.791 178.95C162.791 177.438 163.26 176.202 164.197 175.241C165.135 174.28 166.43 173.676 168.082 173.43L173.496 172.639V172.287C173.496 171.444 173.238 170.776 172.723 170.284C172.207 169.791 171.369 169.545 170.209 169.545C169.729 169.545 169.242 169.604 168.75 169.721C168.258 169.827 167.783 169.95 167.326 170.09C166.881 170.231 166.465 170.395 166.078 170.582C165.691 170.758 165.352 170.916 165.059 171.057L163.16 167.348C164.238 166.75 165.434 166.258 166.746 165.871C168.07 165.485 169.441 165.291 170.859 165.291C171.727 165.291 172.6 165.385 173.479 165.573C174.369 165.748 175.172 166.077 175.887 166.557C176.613 167.037 177.205 167.694 177.662 168.526C178.119 169.346 178.348 170.395 178.348 171.672V179.407C178.348 179.957 178.488 180.368 178.77 180.637C179.062 180.895 179.461 181.135 179.965 181.358L177.768 184.838C176.877 184.745 176.162 184.516 175.623 184.153C175.084 183.778 174.639 183.297 174.287 182.711ZM186.434 175.17C186.434 175.78 186.516 176.395 186.68 177.016C186.844 177.625 187.096 178.176 187.436 178.668C187.775 179.161 188.209 179.565 188.736 179.881C189.275 180.186 189.914 180.338 190.652 180.338C191.133 180.338 191.566 180.274 191.953 180.145C192.352 180.016 192.703 179.84 193.008 179.618C193.324 179.383 193.6 179.114 193.834 178.809C194.08 178.493 194.291 178.153 194.467 177.789L198.721 179.987C198.416 180.725 197.994 181.393 197.455 181.991C196.928 182.588 196.312 183.098 195.609 183.52C194.906 183.942 194.127 184.264 193.271 184.487C192.416 184.721 191.508 184.838 190.547 184.838C189.223 184.838 188.004 184.592 186.891 184.1C185.777 183.596 184.816 182.911 184.008 182.043C183.199 181.176 182.566 180.151 182.109 178.967C181.652 177.772 181.424 176.477 181.424 175.082C181.424 173.7 181.652 172.411 182.109 171.215C182.566 170.02 183.199 168.983 184.008 168.104C184.816 167.225 185.777 166.539 186.891 166.047C188.004 165.543 189.223 165.291 190.547 165.291C191.508 165.291 192.416 165.409 193.271 165.643C194.127 165.866 194.906 166.194 195.609 166.627C196.312 167.049 196.928 167.559 197.455 168.157C197.994 168.754 198.416 169.422 198.721 170.161L194.467 172.358C194.291 171.995 194.08 171.661 193.834 171.356C193.6 171.039 193.324 170.77 193.008 170.547C192.703 170.313 192.352 170.131 191.953 170.002C191.566 169.862 191.133 169.791 190.652 169.791C189.914 169.791 189.275 169.95 188.736 170.266C188.209 170.571 187.775 170.975 187.436 171.479C187.096 171.971 186.844 172.528 186.68 173.149C186.516 173.77 186.434 174.391 186.434 175.012V175.17ZM208.652 178.879C208.652 179.102 208.682 179.313 208.74 179.512C208.799 179.711 208.898 179.887 209.039 180.039C209.191 180.18 209.402 180.291 209.672 180.373C209.941 180.455 210.287 180.496 210.709 180.496C210.885 180.496 211.084 180.491 211.307 180.479C211.529 180.455 211.752 180.432 211.975 180.409C212.197 180.385 212.402 180.356 212.59 180.321C212.789 180.286 212.953 180.256 213.082 180.233L213.521 184.522C213.064 184.58 212.59 184.633 212.098 184.68C211.676 184.727 211.207 184.762 210.691 184.786C210.176 184.821 209.654 184.838 209.127 184.838C207.451 184.838 206.145 184.457 205.207 183.696C204.27 182.934 203.801 181.721 203.801 180.057V169.879H200.408V165.661H203.801V160.334L208.652 159.034V165.661H213.592V169.879H208.652V178.879ZM217.986 178.475C218.678 179.096 219.504 179.629 220.465 180.075C221.426 180.52 222.398 180.743 223.383 180.743C224.098 180.743 224.66 180.608 225.07 180.338C225.48 180.057 225.686 179.7 225.686 179.266C225.686 178.528 224.895 177.953 223.312 177.543L221.941 177.174C221.262 177.01 220.576 176.787 219.885 176.506C219.193 176.213 218.555 175.832 217.969 175.364C217.395 174.895 216.926 174.327 216.562 173.659C216.211 172.979 216.035 172.147 216.035 171.162C216.035 170.377 216.205 169.633 216.545 168.93C216.896 168.215 217.389 167.588 218.021 167.049C218.666 166.51 219.445 166.082 220.359 165.766C221.273 165.45 222.293 165.291 223.418 165.291C225.023 165.291 226.453 165.543 227.707 166.047C228.973 166.551 229.969 167.12 230.695 167.752L228.164 170.987C227.566 170.553 226.857 170.184 226.037 169.879C225.229 169.563 224.414 169.405 223.594 169.405C222.832 169.405 222.24 169.545 221.818 169.827C221.396 170.096 221.186 170.424 221.186 170.811C221.186 171.221 221.367 171.555 221.73 171.813C222.105 172.059 222.645 172.276 223.348 172.463L225.387 173.043C227.332 173.594 228.727 174.338 229.57 175.276C230.414 176.213 230.836 177.397 230.836 178.827C230.836 179.623 230.672 180.385 230.344 181.112C230.016 181.827 229.535 182.465 228.902 183.028C228.27 183.59 227.484 184.036 226.547 184.364C225.609 184.68 224.543 184.838 223.348 184.838C222.434 184.838 221.572 184.756 220.764 184.592C219.967 184.428 219.223 184.205 218.531 183.924C217.852 183.631 217.236 183.303 216.686 182.94C216.135 182.577 215.666 182.213 215.279 181.85L217.986 178.475Z" fill="white"/>
</svg>
