<svg width="300" height="225" viewBox="0 0 300 225" fill="none" xmlns="http://www.w3.org/2000/svg">
<rect width="300" height="224" transform="translate(0 0.486694)" fill="#005A30"/>
<path d="M167.727 55.3767C166.805 53.1786 165.255 51.3468 163.075 49.8815C160.938 48.4161 158.319 47.6834 155.218 47.6834C153.332 47.6834 151.634 48.0282 150.126 48.7178C148.659 49.4074 147.402 50.3771 146.354 51.627C145.306 52.8769 144.489 54.3854 143.902 56.1524C143.358 57.9195 143.106 59.9021 143.148 62.1002L143.274 71.4097H161.378V87.7013H143.274V107.549H181.117V124.487H117.5V107.549H124.981V87.7013H117.5V71.4097H124.981V60.9365C124.981 56.1524 125.714 51.8856 127.181 48.1359C128.69 44.3863 130.764 41.1969 133.404 38.5678C136.086 35.9388 139.25 33.9347 142.897 32.5555C146.584 31.1763 150.608 30.4867 154.966 30.4867C157.984 30.4867 160.875 30.7884 163.641 31.3918C166.449 31.9952 169.026 32.8787 171.373 34.0424C173.762 35.2061 175.899 36.6284 177.785 38.3093C179.671 39.9901 181.243 41.9296 182.5 44.1277L167.727 55.3767Z" fill="white"/>
<path d="M101.127 171.953C101.127 173.032 101.262 174.069 101.531 175.065C101.801 176.061 102.211 176.94 102.762 177.702C103.312 178.463 104.016 179.078 104.871 179.547C105.727 180.004 106.746 180.233 107.93 180.233C109.066 180.233 110.01 180.051 110.76 179.688C111.521 179.325 112.125 178.873 112.57 178.334C113.027 177.784 113.344 177.192 113.52 176.559C113.707 175.926 113.801 175.34 113.801 174.801V174.555H107.35V170.67H118.758V184.487H114.293V181.534C113.977 182.026 113.584 182.477 113.115 182.887C112.646 183.286 112.119 183.631 111.533 183.924C110.947 184.205 110.303 184.428 109.6 184.592C108.908 184.756 108.17 184.838 107.385 184.838C105.545 184.838 103.91 184.504 102.48 183.836C101.051 183.168 99.8438 182.248 98.8594 181.077C97.8867 179.905 97.1426 178.534 96.627 176.963C96.123 175.393 95.8711 173.7 95.8711 171.883C95.8711 170.078 96.1523 168.391 96.7148 166.821C97.2891 165.239 98.0977 163.868 99.1406 162.707C100.195 161.536 101.461 160.616 102.938 159.948C104.426 159.268 106.09 158.928 107.93 158.928C109.125 158.928 110.256 159.069 111.322 159.35C112.4 159.62 113.379 160.012 114.258 160.528C115.148 161.032 115.934 161.647 116.613 162.373C117.293 163.088 117.844 163.885 118.266 164.764L113.801 167.278C113.531 166.739 113.215 166.241 112.852 165.784C112.488 165.315 112.066 164.916 111.586 164.588C111.117 164.248 110.578 163.985 109.969 163.797C109.359 163.598 108.68 163.498 107.93 163.498C106.746 163.498 105.727 163.733 104.871 164.202C104.016 164.659 103.312 165.268 102.762 166.03C102.211 166.791 101.801 167.676 101.531 168.684C101.262 169.68 101.127 170.711 101.127 171.778V171.953ZM133.295 170.371H132.785C132.094 170.371 131.432 170.442 130.799 170.582C130.178 170.723 129.627 170.981 129.146 171.356C128.666 171.719 128.279 172.223 127.986 172.868C127.705 173.512 127.564 174.338 127.564 175.346V184.487H122.713V165.661H127.564V167.787C127.764 167.471 128.021 167.166 128.338 166.873C128.654 166.58 129.023 166.323 129.445 166.1C129.867 165.866 130.342 165.678 130.869 165.537C131.396 165.397 131.965 165.327 132.574 165.327H133.295V170.371ZM142.4 176.84C141.803 176.934 141.322 177.145 140.959 177.473C140.596 177.789 140.414 178.223 140.414 178.774C140.414 179.383 140.637 179.911 141.082 180.356C141.527 180.789 142.184 181.006 143.051 181.006C143.965 181.006 144.686 180.743 145.213 180.215C145.74 179.688 146.004 178.991 146.004 178.123V176.225L142.4 176.84ZM146.795 182.711C146.596 182.934 146.35 183.174 146.057 183.432C145.775 183.678 145.436 183.907 145.037 184.118C144.65 184.317 144.193 184.487 143.666 184.627C143.139 184.768 142.547 184.838 141.891 184.838C140.953 184.838 140.086 184.692 139.289 184.399C138.504 184.094 137.812 183.672 137.215 183.133C136.617 182.594 136.148 181.973 135.809 181.27C135.469 180.555 135.299 179.782 135.299 178.95C135.299 177.438 135.768 176.202 136.705 175.241C137.643 174.28 138.938 173.676 140.59 173.43L146.004 172.639V172.287C146.004 171.444 145.746 170.776 145.23 170.284C144.715 169.791 143.877 169.545 142.717 169.545C142.236 169.545 141.75 169.604 141.258 169.721C140.766 169.827 140.291 169.95 139.834 170.09C139.389 170.231 138.973 170.395 138.586 170.582C138.199 170.758 137.859 170.916 137.566 171.057L135.668 167.348C136.746 166.75 137.941 166.258 139.254 165.871C140.578 165.485 141.949 165.291 143.367 165.291C144.234 165.291 145.107 165.385 145.986 165.573C146.877 165.748 147.68 166.077 148.395 166.557C149.121 167.037 149.713 167.694 150.17 168.526C150.627 169.346 150.855 170.395 150.855 171.672V179.407C150.855 179.957 150.996 180.368 151.277 180.637C151.57 180.895 151.969 181.135 152.473 181.358L150.275 184.838C149.385 184.745 148.67 184.516 148.131 184.153C147.592 183.778 147.146 183.297 146.795 182.711ZM154.916 165.661H159.768V167.278C160.025 167.02 160.312 166.774 160.629 166.539C160.957 166.293 161.314 166.082 161.701 165.907C162.088 165.719 162.516 165.573 162.984 165.467C163.465 165.35 163.992 165.291 164.566 165.291C165.586 165.291 166.5 165.461 167.309 165.801C168.117 166.129 168.797 166.586 169.348 167.172C169.91 167.758 170.338 168.444 170.631 169.229C170.924 170.014 171.07 170.864 171.07 171.778V184.487H166.219V173.536C166.219 172.868 166.143 172.305 165.99 171.848C165.838 171.379 165.627 171.004 165.357 170.723C165.1 170.43 164.789 170.219 164.426 170.09C164.074 169.95 163.688 169.879 163.266 169.879C162.773 169.879 162.311 169.967 161.877 170.143C161.455 170.319 161.086 170.588 160.77 170.952C160.453 171.303 160.207 171.748 160.031 172.287C159.855 172.827 159.768 173.459 159.768 174.186V184.487H154.916V165.661ZM182.074 178.879C182.074 179.102 182.104 179.313 182.162 179.512C182.221 179.711 182.32 179.887 182.461 180.039C182.613 180.18 182.824 180.291 183.094 180.373C183.363 180.455 183.709 180.496 184.131 180.496C184.307 180.496 184.506 180.491 184.729 180.479C184.951 180.455 185.174 180.432 185.396 180.409C185.619 180.385 185.824 180.356 186.012 180.321C186.211 180.286 186.375 180.256 186.504 180.233L186.943 184.522C186.486 184.58 186.012 184.633 185.52 184.68C185.098 184.727 184.629 184.762 184.113 184.786C183.598 184.821 183.076 184.838 182.549 184.838C180.873 184.838 179.566 184.457 178.629 183.696C177.691 182.934 177.223 181.721 177.223 180.057V169.879H173.83V165.661H177.223V160.334L182.074 159.034V165.661H187.014V169.879H182.074V178.879ZM191.408 178.475C192.1 179.096 192.926 179.629 193.887 180.075C194.848 180.52 195.82 180.743 196.805 180.743C197.52 180.743 198.082 180.608 198.492 180.338C198.902 180.057 199.107 179.7 199.107 179.266C199.107 178.528 198.316 177.953 196.734 177.543L195.363 177.174C194.684 177.01 193.998 176.787 193.307 176.506C192.615 176.213 191.977 175.832 191.391 175.364C190.816 174.895 190.348 174.327 189.984 173.659C189.633 172.979 189.457 172.147 189.457 171.162C189.457 170.377 189.627 169.633 189.967 168.93C190.318 168.215 190.811 167.588 191.443 167.049C192.088 166.51 192.867 166.082 193.781 165.766C194.695 165.45 195.715 165.291 196.84 165.291C198.445 165.291 199.875 165.543 201.129 166.047C202.395 166.551 203.391 167.12 204.117 167.752L201.586 170.987C200.988 170.553 200.279 170.184 199.459 169.879C198.65 169.563 197.836 169.405 197.016 169.405C196.254 169.405 195.662 169.545 195.24 169.827C194.818 170.096 194.607 170.424 194.607 170.811C194.607 171.221 194.789 171.555 195.152 171.813C195.527 172.059 196.066 172.276 196.77 172.463L198.809 173.043C200.754 173.594 202.148 174.338 202.992 175.276C203.836 176.213 204.258 177.397 204.258 178.827C204.258 179.623 204.094 180.385 203.766 181.112C203.438 181.827 202.957 182.465 202.324 183.028C201.691 183.59 200.906 184.036 199.969 184.364C199.031 184.68 197.965 184.838 196.77 184.838C195.855 184.838 194.994 184.756 194.186 184.592C193.389 184.428 192.645 184.205 191.953 183.924C191.273 183.631 190.658 183.303 190.107 182.94C189.557 182.577 189.088 182.213 188.701 181.85L191.408 178.475Z" fill="white"/>
</svg>
