<svg width="66" height="95" viewBox="0 0 66 95" fill="none" xmlns="http://www.w3.org/2000/svg">
<path d="M50.7273 25.3767C49.8053 23.1786 48.2547 21.3468 46.0754 19.8815C43.9381 18.4161 41.3188 17.6834 38.2176 17.6834C36.3317 17.6834 34.6344 18.0282 33.1257 18.7178C31.6589 19.4074 30.4017 20.3771 29.354 21.627C28.3063 22.8769 27.489 24.3854 26.9023 26.1524C26.3575 27.9195 26.1061 29.9021 26.148 32.1002L26.2737 41.4097H44.3781V57.7013H26.2737V77.5486H64.117V94.4867H0.5V77.5486H7.98066V57.7013H0.5V41.4097H7.98066V30.9365C7.98066 26.1524 8.71406 21.8856 10.1809 18.1359C11.6896 14.3863 13.764 11.1969 16.4043 8.56785C19.0864 5.93878 22.2505 3.93465 25.8965 2.55547C29.5845 1.17629 33.6077 0.486694 37.9661 0.486694C40.9836 0.486694 43.8752 0.788391 46.6412 1.39178C49.4491 1.99518 52.0264 2.87872 54.3733 4.0424C56.7621 5.20609 58.8994 6.62837 60.7853 8.30925C62.6712 9.99013 64.2427 11.9296 65.5 14.1277L50.7273 25.3767Z" fill="white"/>
</svg>
