<svg width="148" height="95" viewBox="0 0 148 95" fill="none" xmlns="http://www.w3.org/2000/svg">
<path fill-rule="evenodd" clip-rule="evenodd" d="M0.125408 40.6371C0.125408 38.6661 0.154884 36.6933 0.18436 34.7204C0.252718 30.145 0.321076 25.5697 0.0217732 21.018C-0.302953 16.0736 3.05485 14.5586 6.73047 14.531C9.41658 14.5109 12.1036 14.5192 14.7906 14.5275C19.4709 14.542 24.1511 14.5565 28.8256 14.4208C30.4216 14.3726 32.2871 13.5118 33.51 12.4376C34.5761 11.5012 35.5897 10.4987 36.6026 9.49673L36.6026 9.49669C39.456 6.67426 42.3047 3.85638 46.3125 2.53502C54.7623 -0.253949 63.1913 -0.164427 71.6549 2.61765C73.0989 3.09281 74.8676 2.92754 76.4222 2.67963C77.6388 2.48582 78.8505 2.17147 80.0594 1.85782C82.0291 1.34682 83.9915 0.837681 85.9567 0.85475L86.4863 0.858783C92.5444 0.904517 98.7556 0.951408 104.556 2.37663C107.39 3.07179 109.892 5.38983 112.301 7.62231C112.923 8.19846 113.539 8.76891 114.153 9.30429C115.403 10.3948 116.479 11.6792 117.556 12.9656L117.556 12.9657C118.384 13.9537 119.213 14.9429 120.122 15.8463C120.716 16.4385 121.98 16.5487 122.941 16.5556C126.527 16.5907 130.113 16.5883 133.701 16.5858C136.444 16.5839 139.188 16.582 141.934 16.5969C146.059 16.6176 148 18.5595 148 22.5605V60.7866C148 65.6483 146.784 66.8879 142.017 66.8948C140.039 66.8967 138.061 66.9107 136.082 66.9248H136.082C130.922 66.9615 125.762 66.9982 120.612 66.819C117.538 66.7088 115.735 67.969 114.132 70.2759C111.797 73.6503 108.625 75.8332 104.494 76.5907C103.822 76.7125 103.199 77.2537 102.629 77.7487L102.629 77.7488C102.554 77.8138 102.48 77.8781 102.407 77.9405C101.881 78.3947 101.385 78.8937 100.89 79.3919L100.89 79.3922L100.89 79.3922C100.026 80.261 99.1654 81.1272 98.1511 81.7486C97.0749 82.4036 96.0024 83.0703 94.9291 83.7375L94.9288 83.7377C90.6758 86.3814 86.4109 89.0326 81.8596 90.9901C77.4171 92.8976 72.4011 93.8135 67.5509 94.3575C59.5779 95.2458 52.9175 91.4377 47.2521 86.4933C43.4716 83.1922 39.9438 79.6064 36.4147 76.0193C33.9068 73.4702 31.3983 70.9205 28.798 68.4717C27.6511 67.3975 25.5024 67.0118 23.8028 66.9636C19.4863 66.844 15.1664 66.8607 10.8479 66.8774C8.95226 66.8847 7.05687 66.8921 5.16211 66.8879C1.66613 66.881 0.18759 65.5106 0.153044 61.9917C0.108627 56.9103 0.11709 51.8255 0.125551 46.7421C0.128935 44.7091 0.132318 42.6763 0.132318 40.644L0.125408 40.6371ZM25.6958 57.0817C29.7515 57.3365 32.7362 58.9892 35.4307 61.6887L35.8553 62.115L35.8555 62.1152C42.2642 68.5504 48.6882 75.001 55.5223 80.9704C60.324 85.1711 66.1069 86.4175 72.3044 83.4082C73.4582 82.8504 74.9298 82.7678 76.2563 82.7747C79.697 82.7953 82.3087 81.6591 84.2432 78.6153C85.0239 77.3827 86.7512 76.0949 88.1261 75.9985C92.161 75.7162 94.3235 73.1751 95.8573 70.1245C96.9006 68.0379 98.0682 67.246 100.265 67.5696C103.665 68.0723 106.062 66.3576 107.347 63.5205C108.535 60.883 108.48 58.032 106.539 55.5116C105.277 53.8785 104.033 52.2301 102.789 50.5815C100.292 47.2735 97.7947 43.9644 95.1526 40.7749C91.2974 36.1197 90.9035 36.2299 86.8894 40.6785C86.6328 40.9618 86.4303 41.2901 86.2278 41.6184C86.076 41.8646 85.9241 42.1108 85.7494 42.3381C81.293 48.1019 73.9142 52.0685 66.2382 50.4571C55.6812 48.2466 46.9067 34.3086 56.4135 23.4764C59.2601 20.2329 62.0859 16.9757 64.8633 13.6771C65.3362 13.1188 65.7146 12.4784 66.1808 11.6891C66.4161 11.2907 66.6739 10.8545 66.9775 10.3717C65.5411 10.3717 64.1859 10.3963 62.8875 10.42C60.1263 10.4702 57.6212 10.5158 55.1353 10.3097C50.8586 9.95849 47.7012 11.8936 44.751 14.4897C43.3692 15.7017 41.9943 16.9619 40.8543 18.3943C37.6416 22.4297 33.9314 25.1566 28.3835 24.1857C26.5318 23.862 25.6682 24.7779 25.6751 26.7336C25.7105 34.036 25.7052 41.3384 25.6998 48.7944V48.7955C25.6978 51.5343 25.6958 54.2939 25.6958 57.0817ZM120.82 57.853C120.937 57.6845 121.054 57.5142 121.172 57.344C121.289 57.1733 121.407 57.0027 121.524 56.8338V26.9127C120.774 26.6647 120.02 26.4769 119.293 26.2957C117.739 25.9083 116.307 25.5514 115.286 24.7022C113.827 23.4966 112.667 21.9376 111.506 20.3762C110.929 19.6008 110.352 18.8248 109.738 18.0913C105.482 13.016 100.79 8.91177 93.3632 10.3235C91.477 10.6816 89.425 10.6127 87.5112 10.3304C81.9425 9.51777 78.108 12.2034 74.8262 16.1837C74.4241 16.6705 74.0324 17.1675 73.6404 17.6648L73.6404 17.6649C73.1229 18.3214 72.605 18.9784 72.0625 19.6131C71.1061 20.7307 70.1325 21.835 69.1591 22.9392C67.2353 25.1213 65.3121 27.3029 63.5229 29.5846C60.103 33.9574 62.1342 39.4045 67.5095 40.706C72.1247 41.8285 75.5171 40.3479 78.6952 36.4502C82.0738 32.3184 85.6596 28.3381 89.3835 24.5162C90.3439 23.5315 92.5824 22.5812 93.5082 23.0425C94.6314 23.6103 95.4202 24.8905 96.1867 26.1346C96.4056 26.4899 96.6227 26.8423 96.8453 27.1743C97.0657 27.5039 97.1827 27.9107 97.2991 28.3152C97.4307 28.7729 97.5615 29.2276 97.8402 29.5639C98.8922 30.8337 99.9927 32.0662 101.093 33.2981L101.093 33.2982C102.868 35.2863 104.642 37.2727 106.207 39.4114C108.214 42.153 110.093 44.9885 111.973 47.8241C113.619 50.3089 115.266 52.7938 116.999 55.2155C117.578 56.0288 118.554 56.5596 119.527 57.0888C119.971 57.3304 120.415 57.5716 120.82 57.8392V57.853ZM16.5817 54.5445C16.5817 56.6362 14.8804 58.332 12.7818 58.332C10.6831 58.332 8.98177 56.6362 8.98177 54.5445C8.98177 52.4527 10.6831 50.757 12.7818 50.757C14.8804 50.757 16.5817 52.4527 16.5817 54.5445ZM135.072 57.6433C137.171 57.6433 138.872 55.9476 138.872 53.8558C138.872 51.7641 137.171 50.0683 135.072 50.0683C132.973 50.0683 131.272 51.7641 131.272 53.8558C131.272 55.9476 132.973 57.6433 135.072 57.6433Z" fill="white"/>
</svg>
