<svg width="24" height="25" viewBox="0 0 24 25" fill="none" xmlns="http://www.w3.org/2000/svg">
<rect y="0.486694" width="24" height="24" rx="12" fill="#1D70B8"/>
<path d="M13.0107 17.4867H10.9893V9.64246H13.0107V17.4867ZM10.7769 7.58435C10.7769 7.41833 10.8086 7.26208 10.8721 7.1156C10.9355 6.96423 11.021 6.83484 11.1284 6.72742C11.2407 6.61511 11.3701 6.52722 11.5166 6.46375C11.6631 6.40027 11.8218 6.36853 11.9927 6.36853C12.1587 6.36853 12.3149 6.40027 12.4614 6.46375C12.6128 6.52722 12.7422 6.61511 12.8496 6.72742C12.9619 6.83484 13.0498 6.96423 13.1133 7.1156C13.1768 7.26208 13.2085 7.41833 13.2085 7.58435C13.2085 7.75525 13.1768 7.91394 13.1133 8.06042C13.0498 8.20691 12.9619 8.3363 12.8496 8.44861C12.7422 8.55603 12.6128 8.64148 12.4614 8.70496C12.3149 8.76843 12.1587 8.80017 11.9927 8.80017C11.8218 8.80017 11.6631 8.76843 11.5166 8.70496C11.3701 8.64148 11.2407 8.55603 11.1284 8.44861C11.021 8.3363 10.9355 8.20691 10.8721 8.06042C10.8086 7.91394 10.7769 7.75525 10.7769 7.58435Z" fill="white"/>
</svg>
