<svg width="26" height="26" viewBox="0 0 26 26" fill="none" xmlns="http://www.w3.org/2000/svg">
<path d="M13.0007 23.4034C11.5597 23.4034 10.2055 23.13 8.93815 22.5831C7.67079 22.0362 6.56836 21.294 5.63086 20.3565C4.69336 19.419 3.95117 18.3166 3.4043 17.0492C2.85742 15.7819 2.58398 14.4277 2.58398 12.9867C2.58398 11.5458 2.85742 10.1916 3.4043 8.92424C3.95117 7.65687 4.69336 6.55444 5.63086 5.61694C6.56836 4.67944 7.67079 3.93726 8.93815 3.39038C10.2055 2.84351 11.5597 2.57007 13.0007 2.57007C14.4416 2.57007 15.7958 2.84351 17.0632 3.39038C18.3305 3.93726 19.4329 4.67944 20.3704 5.61694C21.3079 6.55444 22.0501 7.65687 22.597 8.92424C23.1439 10.1916 23.4173 11.5458 23.4173 12.9867C23.4173 14.4277 23.1439 15.7819 22.597 17.0492C22.0501 18.3166 21.3079 19.419 20.3704 20.3565C19.4329 21.294 18.3305 22.0362 17.0632 22.5831C15.7958 23.13 14.4416 23.4034 13.0007 23.4034ZM13.0007 21.3201C15.327 21.3201 17.2975 20.5128 18.9121 18.8982C20.5267 17.2836 21.334 15.3131 21.334 12.9867C21.334 12.8652 21.3296 12.7393 21.321 12.6091C21.3123 12.4789 21.3079 12.3704 21.3079 12.2836C21.2211 12.7871 20.9868 13.2037 20.6048 13.5336C20.2229 13.8635 19.7715 14.0284 19.2507 14.0284H17.1673C16.5944 14.0284 16.104 13.8244 15.696 13.4164C15.288 13.0084 15.084 12.518 15.084 11.9451V10.9034H10.9173V8.82007C10.9173 8.24715 11.1213 7.7567 11.5293 7.34871C11.9373 6.94073 12.4277 6.73674 13.0007 6.73674H14.0423C14.0423 6.33743 14.1508 5.98587 14.3678 5.68205C14.5849 5.37823 14.8496 5.13083 15.1621 4.93986C14.8149 4.85305 14.4633 4.78361 14.1074 4.73153C13.7515 4.67944 13.3826 4.6534 13.0007 4.6534C10.6743 4.6534 8.70378 5.46069 7.08919 7.07528C5.47461 8.68986 4.66732 10.6603 4.66732 12.9867H9.87565C11.0215 12.9867 12.0024 13.3947 12.8184 14.2107C13.6343 15.0267 14.0423 16.0076 14.0423 17.1534V18.1951H10.9173V21.0597C11.2645 21.1465 11.6074 21.2116 11.946 21.255C12.2845 21.2984 12.6361 21.3201 13.0007 21.3201Z" fill="#1D70B8"/>
</svg>
