<svg width="14" height="16" viewBox="0 0 14 16" fill="none" xmlns="http://www.w3.org/2000/svg">
<path d="M9.4127 9.33199L1.34921 9.33199C0.96693 9.33199 0.646494 9.20306 0.387896 8.94521C0.129298 8.68737 -3.11174e-07 8.36786 -3.27835e-07 7.98669C-3.44497e-07 7.60553 0.129298 7.28602 0.387896 7.02817C0.646494 6.77033 0.96693 6.6414 1.34921 6.6414L9.4127 6.6414L5.5 2.74006C5.25264 2.49342 5.12897 2.17952 5.12897 1.79835C5.12897 1.41719 5.25264 1.10329 5.5 0.85665C5.74735 0.610013 6.06217 0.486695 6.44444 0.486695C6.82672 0.486695 7.14153 0.610013 7.38889 0.85665L13.5952 7.04499C13.8651 7.31405 14 7.62795 14 7.98669C14 8.34544 13.8651 8.65934 13.5952 8.9284L7.38889 15.1167C7.14153 15.3634 6.82672 15.4867 6.44444 15.4867C6.06217 15.4867 5.74735 15.3634 5.5 15.1167C5.25265 14.8701 5.12897 14.5562 5.12897 14.175C5.12897 13.7939 5.25265 13.48 5.5 13.2333L9.4127 9.33199Z" fill="white"/>
</svg>
