<svg width="300" height="67" viewBox="0 0 300 67" fill="none" xmlns="http://www.w3.org/2000/svg">
<path fill-rule="evenodd" clip-rule="evenodd" d="M163.904 25.6904V50.8941H166.514H169.125V25.6904V0.486694H166.514H163.904V25.6904ZM235.408 25.6904V50.8941H237.891H240.374L240.453 39.8889C240.528 29.2659 240.549 28.8316 241.031 27.3846C242.331 23.483 245.343 20.7008 249.276 19.7692C254.036 18.6418 258.276 20.2877 260.158 23.9937C261.189 26.0246 261.278 27.2423 261.282 39.4327L261.286 50.8941H263.91H266.534L266.447 38.0642C266.37 26.6523 266.316 25.0846 265.961 23.8801C264.677 19.5204 261.908 16.6538 257.767 15.395C255.932 14.8371 251.351 14.8343 249.255 15.3897C246.102 16.2254 242.952 18.1993 241.423 20.297C241.049 20.8114 240.666 21.2343 240.572 21.2372C240.479 21.2402 240.402 16.5726 240.402 10.8647V0.486694H237.905H235.408V25.6904ZM14.6523 1.26904C11.2112 2.06164 9.08651 3.20322 6.79496 5.49026C4.05169 8.22823 2.73487 11.4842 2.73487 15.5291C2.73487 20.2927 4.71884 23.5197 9.01228 25.7392C11.4141 26.9807 12.7698 27.3974 19.5327 28.9724C27.0446 30.7218 29.122 31.5406 31.1067 33.5346C32.5139 34.9487 33.021 36.4215 32.8771 38.6764C32.6323 42.5057 30.3256 45.189 25.9631 46.7185C24.3501 47.2842 23.8825 47.3423 20.8947 47.3501C18.0636 47.3576 17.3651 47.284 15.9008 46.8246C10.7613 45.2122 7.23262 41.774 6.02067 37.1986C5.83953 36.5143 5.68994 35.672 5.68857 35.3271C5.6854 34.5722 5.7544 34.5754 2.55918 35.1798L0 35.6638L0.135064 36.4933C0.413818 38.2067 1.21875 40.5759 2.1213 42.3408C2.8511 43.7678 3.55161 44.6662 5.33491 46.4622C7.41308 48.5551 7.84687 48.8735 10.2258 50.0511C13.678 51.7597 15.8084 52.277 19.9867 52.4207C22.6964 52.5138 23.6614 52.4543 25.4458 52.0836C29.2955 51.2842 32.0367 49.9017 34.3768 47.58C36.8942 45.0825 38.2941 41.9693 38.5275 38.3493C38.7692 34.6034 37.7396 31.7183 35.3127 29.3398C32.515 26.598 29.831 25.4746 21.3816 23.5092C18.1864 22.7659 15.0588 21.9892 14.4312 21.783C11.6359 20.8648 9.85921 19.5389 8.96575 17.7039C8.40597 16.5546 8.36397 16.2772 8.45477 14.3421C8.57213 11.8418 9.1394 10.51 10.7783 8.88626C13.9413 5.75302 20.1903 5.0074 24.575 7.23992C27.1199 8.53569 29.3168 11.3471 30.0777 14.2821C30.2668 15.0122 30.46 15.6479 30.5067 15.6949C30.5535 15.7419 31.7389 15.4969 33.1411 15.1505L35.6905 14.5207L35.549 13.6309C35.3295 12.2526 34.2327 9.60588 33.2886 8.17668C31.2953 5.1593 27.551 2.47357 23.9592 1.48481C22.1017 0.973662 16.4989 0.843652 14.6523 1.26904ZM179.442 2.63232C177.315 3.56314 176.645 6.47377 178.146 8.26609C179.284 9.62458 180.802 9.93318 182.437 9.13784C183.728 8.50992 184.333 7.49561 184.333 5.96081C184.333 4.426 183.728 3.41169 182.437 2.78377C181.326 2.2432 180.434 2.19804 179.442 2.63232ZM136.948 5.42959L134.621 5.99456V11.1097V16.2248H130.875H127.13V18.3916V20.5584H130.864H134.598L134.671 32.1339C134.742 43.3695 134.759 43.7534 135.246 45.2061C136.706 49.5614 140.485 52.1397 145.403 52.1356C149.085 52.1326 151.929 51.0351 154.305 48.7002C155.729 47.3015 157.091 44.9148 157.428 43.2281C157.569 42.5233 157.557 42.513 155.646 41.6885C154.589 41.2319 153.626 40.8583 153.507 40.8583C153.389 40.8583 153.226 41.1917 153.146 41.5995C152.681 43.9703 150.642 46.362 148.343 47.234C145.76 48.2136 142.797 47.4682 141.268 45.4545C139.875 43.6193 139.842 43.2883 139.842 31.3511V20.5584H147.56H155.278V18.3916V16.2248H147.56H139.842V10.5226C139.842 6.10108 139.778 4.82538 139.558 4.84249C139.402 4.85481 138.227 5.11893 136.948 5.42959ZM279.502 5.42571L277.176 5.99958V11.1122V16.2248H273.43H269.685V18.3916V20.5584H273.43H277.176L277.179 31.6777C277.183 43.7303 277.242 44.4452 278.445 46.831C280.301 50.5103 284.82 52.6737 289.434 52.0909C294.869 51.4041 298.773 48.0699 299.956 43.1045C300.094 42.5263 300.013 42.4631 298.149 41.6789C297.076 41.2275 296.114 40.8583 296.012 40.8583C295.909 40.8583 295.755 41.192 295.668 41.5995C295.382 42.9441 294.361 44.7396 293.348 45.6778C289.993 48.7852 285.1 48.1867 283.127 44.4276L282.51 43.2532L282.445 31.9058L282.38 20.5584H290.115H297.849L297.784 18.4486L297.719 16.3388L290.058 16.2788L282.397 16.2186V10.5196C282.397 6.10382 282.333 4.82379 282.113 4.8361C281.957 4.84454 280.782 5.11004 279.502 5.42571ZM60.8755 15.0882C59.0202 15.3482 56.8685 16.0494 54.9526 17.019C53.434 17.7874 50.1775 20.2234 50.1775 20.5908C50.1775 20.6985 50.0826 20.7865 49.9668 20.7865C49.8511 20.7865 49.6942 20.1962 49.6182 19.475C49.5423 18.7538 49.4261 17.7238 49.3598 17.1862L49.2393 16.2086L47.0411 16.2738L44.843 16.3388V40.7442V65.1496L47.3968 65.2142L49.9505 65.2787V55.9196C49.9505 50.7721 49.9886 46.5605 50.0354 46.5605C50.0821 46.5605 50.5164 46.9291 51.0001 47.3795C53.0057 49.2467 55.9644 50.8647 58.7469 51.616C61.1161 52.2556 65.4887 52.3005 67.7698 51.7089C74.2627 50.0244 79.4736 44.9276 81.3116 38.4633C81.9924 36.0696 82.0449 31.2913 81.4156 28.9977C79.9297 23.5813 76.1202 18.9728 71.227 16.672C68.296 15.2939 64.0478 14.6441 60.8755 15.0882ZM206.623 15.0884C200.589 15.928 195.273 19.7736 192.598 25.234C191.191 28.1068 190.658 30.3502 190.648 33.4454C190.637 36.5063 191.094 38.6734 192.298 41.2789C195.002 47.1325 199.814 50.8316 206.169 51.9436C211.313 52.8434 216.793 51.3291 220.907 47.8704L222.469 46.5573L222.466 48.4406C222.454 55.1582 218.35 60.1946 211.812 61.5148C207.707 62.3435 202.715 61.5123 199.088 59.3959C197.637 58.5492 194.845 55.9896 193.931 54.6681L193.465 53.9941L191.513 55.6589C189.316 57.5333 189.344 57.3504 190.962 59.2907C193.654 62.5205 198.063 64.9355 203.37 66.0887C205.575 66.5679 210.854 66.6269 213.049 66.1972C220.045 64.8267 225.043 60.4193 227.045 53.8531L227.565 52.1486L227.636 34.1867L227.706 16.2248H225.45H223.195L223.05 17.6503C222.97 18.4345 222.848 19.462 222.78 19.9339L222.655 20.792L221.541 19.785C218.27 16.8303 214.517 15.2652 210.085 15.0072C208.968 14.9425 207.41 14.9789 206.623 15.0884ZM178.204 33.5594V50.8941H180.815H183.425V33.5594V16.2248H180.815H178.204V33.5594ZM66.6131 20.5527C69.0873 21.1886 70.9172 22.2401 72.7752 24.0938C77.9444 29.2506 78.0996 37.4073 73.13 42.7286C67.8604 48.371 59.1441 48.418 53.8757 42.8321C51.3168 40.119 50.135 37.2453 50.1089 33.6735C50.0815 29.9171 51.3413 26.8603 54.0131 24.2001C57.5508 20.678 62.0415 19.3781 66.6131 20.5527ZM213.276 20.8155C216.519 21.8852 219.622 24.636 221.114 27.7633C224.756 35.3997 220.539 44.4605 212.365 46.5611C205.572 48.3069 198.519 44.3715 196.358 37.6299C195.344 34.4668 195.664 30.6055 197.196 27.5151C198.916 24.048 202.411 21.2993 206.209 20.4273C208.149 19.9821 211.269 20.1533 213.276 20.8155Z" fill="#24145F"/>
<ellipse cx="106.473" cy="33.5595" rx="19.5218" ry="19.6156" fill="#EAAA00"/>
</svg>
