<svg width="300" height="225" viewBox="0 0 300 225" fill="none" xmlns="http://www.w3.org/2000/svg">
<rect width="300" height="224" transform="translate(0 0.486694)" fill="#F47738"/>
<path d="M150 50.2267L187.254 114.592H112.746L150 50.2267ZM150 30.4867L95.579 124.487H204.421L150 30.4867Z" fill="white"/>
<path d="M154.947 99.7498H145.053V109.645H154.947V99.7498Z" fill="white"/>
<path d="M154.947 70.0656H145.053V94.8025H154.947V70.0656Z" fill="white"/>
<path d="M88.4766 159.28H107.689V164.008H100.641V184.487H95.5254V164.008H88.4766V159.28ZM110.344 159.28H115.195V167.278C115.453 167.02 115.74 166.774 116.057 166.539C116.385 166.293 116.742 166.082 117.129 165.907C117.516 165.719 117.943 165.573 118.412 165.467C118.893 165.35 119.42 165.291 119.994 165.291C121.014 165.291 121.928 165.461 122.736 165.801C123.545 166.129 124.225 166.586 124.775 167.172C125.338 167.758 125.766 168.444 126.059 169.229C126.352 170.014 126.498 170.864 126.498 171.778V184.487H121.646V173.536C121.646 172.868 121.57 172.305 121.418 171.848C121.266 171.379 121.055 171.004 120.785 170.723C120.527 170.43 120.217 170.219 119.854 170.09C119.502 169.95 119.115 169.879 118.693 169.879C118.201 169.879 117.738 169.967 117.305 170.143C116.883 170.319 116.514 170.588 116.197 170.952C115.881 171.303 115.635 171.748 115.459 172.287C115.283 172.827 115.195 173.459 115.195 174.186V184.487H110.344V159.28ZM141.141 170.371H140.631C139.939 170.371 139.277 170.442 138.645 170.582C138.023 170.723 137.473 170.981 136.992 171.356C136.512 171.719 136.125 172.223 135.832 172.868C135.551 173.512 135.41 174.338 135.41 175.346V184.487H130.559V165.661H135.41V167.787C135.609 167.471 135.867 167.166 136.184 166.873C136.5 166.58 136.869 166.323 137.291 166.1C137.713 165.866 138.188 165.678 138.715 165.537C139.242 165.397 139.811 165.327 140.42 165.327H141.141V170.371ZM148.225 176.752C148.307 177.315 148.482 177.83 148.752 178.299C149.033 178.768 149.385 179.172 149.807 179.512C150.229 179.84 150.715 180.098 151.266 180.286C151.816 180.473 152.402 180.567 153.023 180.567C153.738 180.567 154.512 180.432 155.344 180.162C156.176 179.881 156.938 179.477 157.629 178.95L159.967 182.36C159.088 183.098 158.01 183.696 156.732 184.153C155.455 184.61 154.096 184.838 152.654 184.838C151.354 184.838 150.129 184.616 148.98 184.17C147.832 183.725 146.824 183.08 145.957 182.237C145.102 181.393 144.422 180.368 143.918 179.161C143.426 177.953 143.18 176.594 143.18 175.082C143.18 173.7 143.396 172.411 143.83 171.215C144.275 170.02 144.891 168.983 145.676 168.104C146.473 167.225 147.422 166.539 148.523 166.047C149.625 165.543 150.844 165.291 152.18 165.291C153.422 165.291 154.576 165.52 155.643 165.977C156.709 166.422 157.635 167.055 158.42 167.875C159.205 168.684 159.82 169.657 160.266 170.793C160.711 171.93 160.934 173.184 160.934 174.555V176.752H148.225ZM152.162 169.51C151.119 169.51 150.234 169.862 149.508 170.565C148.793 171.256 148.377 172.094 148.26 173.078H155.854C155.83 172.082 155.467 171.239 154.764 170.547C154.061 169.856 153.193 169.51 152.162 169.51ZM170.109 176.84C169.512 176.934 169.031 177.145 168.668 177.473C168.305 177.789 168.123 178.223 168.123 178.774C168.123 179.383 168.346 179.911 168.791 180.356C169.236 180.789 169.893 181.006 170.76 181.006C171.674 181.006 172.395 180.743 172.922 180.215C173.449 179.688 173.713 178.991 173.713 178.123V176.225L170.109 176.84ZM174.504 182.711C174.305 182.934 174.059 183.174 173.766 183.432C173.484 183.678 173.145 183.907 172.746 184.118C172.359 184.317 171.902 184.487 171.375 184.627C170.848 184.768 170.256 184.838 169.6 184.838C168.662 184.838 167.795 184.692 166.998 184.399C166.213 184.094 165.521 183.672 164.924 183.133C164.326 182.594 163.857 181.973 163.518 181.27C163.178 180.555 163.008 179.782 163.008 178.95C163.008 177.438 163.477 176.202 164.414 175.241C165.352 174.28 166.646 173.676 168.299 173.43L173.713 172.639V172.287C173.713 171.444 173.455 170.776 172.939 170.284C172.424 169.791 171.586 169.545 170.426 169.545C169.945 169.545 169.459 169.604 168.967 169.721C168.475 169.827 168 169.95 167.543 170.09C167.098 170.231 166.682 170.395 166.295 170.582C165.908 170.758 165.568 170.916 165.275 171.057L163.377 167.348C164.455 166.75 165.65 166.258 166.963 165.871C168.287 165.485 169.658 165.291 171.076 165.291C171.943 165.291 172.816 165.385 173.695 165.573C174.586 165.748 175.389 166.077 176.104 166.557C176.83 167.037 177.422 167.694 177.879 168.526C178.336 169.346 178.564 170.395 178.564 171.672V179.407C178.564 179.957 178.705 180.368 178.986 180.637C179.279 180.895 179.678 181.135 180.182 181.358L177.984 184.838C177.094 184.745 176.379 184.516 175.84 184.153C175.301 183.778 174.855 183.297 174.504 182.711ZM188.83 178.879C188.83 179.102 188.859 179.313 188.918 179.512C188.977 179.711 189.076 179.887 189.217 180.039C189.369 180.18 189.58 180.291 189.85 180.373C190.119 180.455 190.465 180.496 190.887 180.496C191.062 180.496 191.262 180.491 191.484 180.479C191.707 180.455 191.93 180.432 192.152 180.409C192.375 180.385 192.58 180.356 192.768 180.321C192.967 180.286 193.131 180.256 193.26 180.233L193.699 184.522C193.242 184.58 192.768 184.633 192.275 184.68C191.854 184.727 191.385 184.762 190.869 184.786C190.354 184.821 189.832 184.838 189.305 184.838C187.629 184.838 186.322 184.457 185.385 183.696C184.447 182.934 183.979 181.721 183.979 180.057V169.879H180.586V165.661H183.979V160.334L188.83 159.034V165.661H193.77V169.879H188.83V178.879ZM198.164 178.475C198.855 179.096 199.682 179.629 200.643 180.075C201.604 180.52 202.576 180.743 203.561 180.743C204.275 180.743 204.838 180.608 205.248 180.338C205.658 180.057 205.863 179.7 205.863 179.266C205.863 178.528 205.072 177.953 203.49 177.543L202.119 177.174C201.439 177.01 200.754 176.787 200.062 176.506C199.371 176.213 198.732 175.832 198.146 175.364C197.572 174.895 197.104 174.327 196.74 173.659C196.389 172.979 196.213 172.147 196.213 171.162C196.213 170.377 196.383 169.633 196.723 168.93C197.074 168.215 197.566 167.588 198.199 167.049C198.844 166.51 199.623 166.082 200.537 165.766C201.451 165.45 202.471 165.291 203.596 165.291C205.201 165.291 206.631 165.543 207.885 166.047C209.15 166.551 210.146 167.12 210.873 167.752L208.342 170.987C207.744 170.553 207.035 170.184 206.215 169.879C205.406 169.563 204.592 169.405 203.771 169.405C203.01 169.405 202.418 169.545 201.996 169.827C201.574 170.096 201.363 170.424 201.363 170.811C201.363 171.221 201.545 171.555 201.908 171.813C202.283 172.059 202.822 172.276 203.525 172.463L205.564 173.043C207.51 173.594 208.904 174.338 209.748 175.276C210.592 176.213 211.014 177.397 211.014 178.827C211.014 179.623 210.85 180.385 210.521 181.112C210.193 181.827 209.713 182.465 209.08 183.028C208.447 183.59 207.662 184.036 206.725 184.364C205.787 184.68 204.721 184.838 203.525 184.838C202.611 184.838 201.75 184.756 200.941 184.592C200.145 184.428 199.4 184.205 198.709 183.924C198.029 183.631 197.414 183.303 196.863 182.94C196.312 182.577 195.844 182.213 195.457 181.85L198.164 178.475Z" fill="white"/>
</svg>
