<svg width="300" height="225" viewBox="0 0 300 225" fill="none" xmlns="http://www.w3.org/2000/svg">
<rect width="300" height="224" transform="translate(0 0.486694)" fill="#F47738"/>
<path d="M150 50.2267L187.254 114.592H112.746L150 50.2267ZM150 30.4867L95.579 124.487H204.421L150 30.4867Z" fill="white"/>
<path d="M154.947 99.7498H145.053V109.645H154.947V99.7498Z" fill="white"/>
<path d="M154.947 70.0656H145.053V94.8025H154.947V70.0656Z" fill="white"/>
<path d="M88.0449 159.28H107.258V164.008H100.209V184.487H95.0938V164.008H88.0449V159.28ZM109.912 159.28H114.764V167.278C115.021 167.02 115.309 166.774 115.625 166.539C115.953 166.293 116.311 166.082 116.697 165.907C117.084 165.719 117.512 165.573 117.98 165.467C118.461 165.35 118.988 165.291 119.562 165.291C120.582 165.291 121.496 165.461 122.305 165.801C123.113 166.129 123.793 166.586 124.344 167.172C124.906 167.758 125.334 168.444 125.627 169.229C125.92 170.014 126.066 170.864 126.066 171.778V184.487H121.215V173.536C121.215 172.868 121.139 172.305 120.986 171.848C120.834 171.379 120.623 171.004 120.354 170.723C120.096 170.43 119.785 170.219 119.422 170.09C119.07 169.95 118.684 169.879 118.262 169.879C117.77 169.879 117.307 169.967 116.873 170.143C116.451 170.319 116.082 170.588 115.766 170.952C115.449 171.303 115.203 171.748 115.027 172.287C114.852 172.827 114.764 173.459 114.764 174.186V184.487H109.912V159.28ZM140.709 170.371H140.199C139.508 170.371 138.846 170.442 138.213 170.582C137.592 170.723 137.041 170.981 136.561 171.356C136.08 171.719 135.693 172.223 135.4 172.868C135.119 173.512 134.979 174.338 134.979 175.346V184.487H130.127V165.661H134.979V167.787C135.178 167.471 135.436 167.166 135.752 166.873C136.068 166.58 136.438 166.323 136.859 166.1C137.281 165.866 137.756 165.678 138.283 165.537C138.811 165.397 139.379 165.327 139.988 165.327H140.709V170.371ZM147.793 176.752C147.875 177.315 148.051 177.83 148.32 178.299C148.602 178.768 148.953 179.172 149.375 179.512C149.797 179.84 150.283 180.098 150.834 180.286C151.385 180.473 151.971 180.567 152.592 180.567C153.307 180.567 154.08 180.432 154.912 180.162C155.744 179.881 156.506 179.477 157.197 178.95L159.535 182.36C158.656 183.098 157.578 183.696 156.301 184.153C155.023 184.61 153.664 184.838 152.223 184.838C150.922 184.838 149.697 184.616 148.549 184.17C147.4 183.725 146.393 183.08 145.525 182.237C144.67 181.393 143.99 180.368 143.486 179.161C142.994 177.953 142.748 176.594 142.748 175.082C142.748 173.7 142.965 172.411 143.398 171.215C143.844 170.02 144.459 168.983 145.244 168.104C146.041 167.225 146.99 166.539 148.092 166.047C149.193 165.543 150.412 165.291 151.748 165.291C152.99 165.291 154.145 165.52 155.211 165.977C156.277 166.422 157.203 167.055 157.988 167.875C158.773 168.684 159.389 169.657 159.834 170.793C160.279 171.93 160.502 173.184 160.502 174.555V176.752H147.793ZM151.73 169.51C150.688 169.51 149.803 169.862 149.076 170.565C148.361 171.256 147.945 172.094 147.828 173.078H155.422C155.398 172.082 155.035 171.239 154.332 170.547C153.629 169.856 152.762 169.51 151.73 169.51ZM169.678 176.84C169.08 176.934 168.6 177.145 168.236 177.473C167.873 177.789 167.691 178.223 167.691 178.774C167.691 179.383 167.914 179.911 168.359 180.356C168.805 180.789 169.461 181.006 170.328 181.006C171.242 181.006 171.963 180.743 172.49 180.215C173.018 179.688 173.281 178.991 173.281 178.123V176.225L169.678 176.84ZM174.072 182.711C173.873 182.934 173.627 183.174 173.334 183.432C173.053 183.678 172.713 183.907 172.314 184.118C171.928 184.317 171.471 184.487 170.943 184.627C170.416 184.768 169.824 184.838 169.168 184.838C168.23 184.838 167.363 184.692 166.566 184.399C165.781 184.094 165.09 183.672 164.492 183.133C163.895 182.594 163.426 181.973 163.086 181.27C162.746 180.555 162.576 179.782 162.576 178.95C162.576 177.438 163.045 176.202 163.982 175.241C164.92 174.28 166.215 173.676 167.867 173.43L173.281 172.639V172.287C173.281 171.444 173.023 170.776 172.508 170.284C171.992 169.791 171.154 169.545 169.994 169.545C169.514 169.545 169.027 169.604 168.535 169.721C168.043 169.827 167.568 169.95 167.111 170.09C166.666 170.231 166.25 170.395 165.863 170.582C165.477 170.758 165.137 170.916 164.844 171.057L162.945 167.348C164.023 166.75 165.219 166.258 166.531 165.871C167.855 165.485 169.227 165.291 170.645 165.291C171.512 165.291 172.385 165.385 173.264 165.573C174.154 165.748 174.957 166.077 175.672 166.557C176.398 167.037 176.99 167.694 177.447 168.526C177.904 169.346 178.133 170.395 178.133 171.672V179.407C178.133 179.957 178.273 180.368 178.555 180.637C178.848 180.895 179.246 181.135 179.75 181.358L177.553 184.838C176.662 184.745 175.947 184.516 175.408 184.153C174.869 183.778 174.424 183.297 174.072 182.711ZM188.398 178.879C188.398 179.102 188.428 179.313 188.486 179.512C188.545 179.711 188.645 179.887 188.785 180.039C188.938 180.18 189.148 180.291 189.418 180.373C189.688 180.455 190.033 180.496 190.455 180.496C190.631 180.496 190.83 180.491 191.053 180.479C191.275 180.455 191.498 180.432 191.721 180.409C191.943 180.385 192.148 180.356 192.336 180.321C192.535 180.286 192.699 180.256 192.828 180.233L193.268 184.522C192.811 184.58 192.336 184.633 191.844 184.68C191.422 184.727 190.953 184.762 190.438 184.786C189.922 184.821 189.4 184.838 188.873 184.838C187.197 184.838 185.891 184.457 184.953 183.696C184.016 182.934 183.547 181.721 183.547 180.057V169.879H180.154V165.661H183.547V160.334L188.398 159.034V165.661H193.338V169.879H188.398V178.879ZM197.732 178.475C198.424 179.096 199.25 179.629 200.211 180.075C201.172 180.52 202.145 180.743 203.129 180.743C203.844 180.743 204.406 180.608 204.816 180.338C205.227 180.057 205.432 179.7 205.432 179.266C205.432 178.528 204.641 177.953 203.059 177.543L201.688 177.174C201.008 177.01 200.322 176.787 199.631 176.506C198.939 176.213 198.301 175.832 197.715 175.364C197.141 174.895 196.672 174.327 196.309 173.659C195.957 172.979 195.781 172.147 195.781 171.162C195.781 170.377 195.951 169.633 196.291 168.93C196.643 168.215 197.135 167.588 197.768 167.049C198.412 166.51 199.191 166.082 200.105 165.766C201.02 165.45 202.039 165.291 203.164 165.291C204.77 165.291 206.199 165.543 207.453 166.047C208.719 166.551 209.715 167.12 210.441 167.752L207.91 170.987C207.312 170.553 206.604 170.184 205.783 169.879C204.975 169.563 204.16 169.405 203.34 169.405C202.578 169.405 201.986 169.545 201.564 169.827C201.143 170.096 200.932 170.424 200.932 170.811C200.932 171.221 201.113 171.555 201.477 171.813C201.852 172.059 202.391 172.276 203.094 172.463L205.133 173.043C207.078 173.594 208.473 174.338 209.316 175.276C210.16 176.213 210.582 177.397 210.582 178.827C210.582 179.623 210.418 180.385 210.09 181.112C209.762 181.827 209.281 182.465 208.648 183.028C208.016 183.59 207.23 184.036 206.293 184.364C205.355 184.68 204.289 184.838 203.094 184.838C202.18 184.838 201.318 184.756 200.51 184.592C199.713 184.428 198.969 184.205 198.277 183.924C197.598 183.631 196.982 183.303 196.432 182.94C195.881 182.577 195.412 182.213 195.025 181.85L197.732 178.475Z" fill="white"/>
</svg>
