<svg width="300" height="265" viewBox="0 0 300 265" fill="none" xmlns="http://www.w3.org/2000/svg">
<rect width="300" height="264" transform="translate(0 0.486694)" fill="#F47738"/>
<path d="M150 50.2267L187.254 114.592H112.746L150 50.2267ZM150 30.4867L95.579 124.487H204.421L150 30.4867Z" fill="white"/>
<path d="M154.947 99.7498H145.053V109.645H154.947V99.7498Z" fill="white"/>
<path d="M154.947 70.0656H145.053V94.8025H154.947V70.0656Z" fill="white"/>
<path d="M87.9316 165.186V184.487H82.834V159.28H90.0234L100.113 176.207V159.28H105.211V184.487H99.6035L87.9316 165.186ZM116.039 176.84C115.441 176.934 114.961 177.145 114.598 177.473C114.234 177.789 114.053 178.223 114.053 178.774C114.053 179.383 114.275 179.911 114.721 180.356C115.166 180.789 115.822 181.006 116.689 181.006C117.604 181.006 118.324 180.743 118.852 180.215C119.379 179.688 119.643 178.991 119.643 178.123V176.225L116.039 176.84ZM120.434 182.711C120.234 182.934 119.988 183.174 119.695 183.432C119.414 183.678 119.074 183.907 118.676 184.118C118.289 184.317 117.832 184.487 117.305 184.627C116.777 184.768 116.186 184.838 115.529 184.838C114.592 184.838 113.725 184.692 112.928 184.399C112.143 184.094 111.451 183.672 110.854 183.133C110.256 182.594 109.787 181.973 109.447 181.27C109.107 180.555 108.938 179.782 108.938 178.95C108.938 177.438 109.406 176.202 110.344 175.241C111.281 174.28 112.576 173.676 114.229 173.43L119.643 172.639V172.287C119.643 171.444 119.385 170.776 118.869 170.284C118.354 169.791 117.516 169.545 116.355 169.545C115.875 169.545 115.389 169.604 114.896 169.721C114.404 169.827 113.93 169.95 113.473 170.09C113.027 170.231 112.611 170.395 112.225 170.582C111.838 170.758 111.498 170.916 111.205 171.057L109.307 167.348C110.385 166.75 111.58 166.258 112.893 165.871C114.217 165.485 115.588 165.291 117.006 165.291C117.873 165.291 118.746 165.385 119.625 165.573C120.516 165.748 121.318 166.077 122.033 166.557C122.76 167.037 123.352 167.694 123.809 168.526C124.266 169.346 124.494 170.395 124.494 171.672V179.407C124.494 179.957 124.635 180.368 124.916 180.637C125.209 180.895 125.607 181.135 126.111 181.358L123.914 184.838C123.023 184.745 122.309 184.516 121.77 184.153C121.23 183.778 120.785 183.297 120.434 182.711ZM134.76 178.879C134.76 179.102 134.789 179.313 134.848 179.512C134.906 179.711 135.006 179.887 135.146 180.039C135.299 180.18 135.51 180.291 135.779 180.373C136.049 180.455 136.395 180.496 136.816 180.496C136.992 180.496 137.191 180.491 137.414 180.479C137.637 180.455 137.859 180.432 138.082 180.409C138.305 180.385 138.51 180.356 138.697 180.321C138.896 180.286 139.061 180.256 139.189 180.233L139.629 184.522C139.172 184.58 138.697 184.633 138.205 184.68C137.783 184.727 137.314 184.762 136.799 184.786C136.283 184.821 135.762 184.838 135.234 184.838C133.559 184.838 132.252 184.457 131.314 183.696C130.377 182.934 129.908 181.721 129.908 180.057V169.879H126.516V165.661H129.908V160.334L134.76 159.034V165.661H139.699V169.879H134.76V178.879ZM147.609 184.487H142.758V165.661H147.609V184.487ZM142.248 160.721C142.248 160.323 142.324 159.948 142.477 159.596C142.629 159.233 142.834 158.922 143.092 158.664C143.361 158.395 143.672 158.184 144.023 158.032C144.375 157.879 144.756 157.803 145.166 157.803C145.564 157.803 145.939 157.879 146.291 158.032C146.654 158.184 146.965 158.395 147.223 158.664C147.492 158.922 147.703 159.233 147.855 159.596C148.008 159.948 148.084 160.323 148.084 160.721C148.084 161.131 148.008 161.512 147.855 161.864C147.703 162.215 147.492 162.526 147.223 162.795C146.965 163.053 146.654 163.258 146.291 163.411C145.939 163.563 145.564 163.639 145.166 163.639C144.756 163.639 144.375 163.563 144.023 163.411C143.672 163.258 143.361 163.053 143.092 162.795C142.834 162.526 142.629 162.215 142.477 161.864C142.324 161.512 142.248 161.131 142.248 160.721ZM160.072 165.291C161.467 165.291 162.732 165.543 163.869 166.047C165.006 166.539 165.979 167.225 166.787 168.104C167.596 168.983 168.217 170.02 168.65 171.215C169.096 172.411 169.318 173.7 169.318 175.082C169.318 176.477 169.096 177.772 168.65 178.967C168.205 180.151 167.578 181.176 166.77 182.043C165.961 182.911 164.988 183.596 163.852 184.1C162.715 184.592 161.455 184.838 160.072 184.838C158.678 184.838 157.412 184.592 156.275 184.1C155.139 183.596 154.166 182.911 153.357 182.043C152.549 181.176 151.922 180.151 151.477 178.967C151.031 177.772 150.809 176.477 150.809 175.082C150.809 173.7 151.025 172.411 151.459 171.215C151.904 170.02 152.531 168.983 153.34 168.104C154.148 167.225 155.121 166.539 156.258 166.047C157.406 165.543 158.678 165.291 160.072 165.291ZM160.072 180.338C160.764 180.338 161.373 180.209 161.9 179.952C162.439 179.694 162.891 179.336 163.254 178.879C163.617 178.422 163.893 177.877 164.08 177.245C164.268 176.6 164.361 175.897 164.361 175.135V175.012C164.361 174.25 164.268 173.553 164.08 172.92C163.893 172.276 163.617 171.725 163.254 171.268C162.891 170.799 162.439 170.436 161.9 170.178C161.373 169.92 160.764 169.791 160.072 169.791C159.381 169.791 158.766 169.92 158.227 170.178C157.699 170.436 157.254 170.799 156.891 171.268C156.527 171.725 156.252 172.276 156.064 172.92C155.877 173.553 155.783 174.25 155.783 175.012V175.135C155.783 175.897 155.877 176.6 156.064 177.245C156.252 177.877 156.527 178.422 156.891 178.879C157.254 179.336 157.699 179.694 158.227 179.952C158.766 180.209 159.381 180.338 160.072 180.338ZM172.535 165.661H177.387V167.278C177.645 167.02 177.932 166.774 178.248 166.539C178.576 166.293 178.934 166.082 179.32 165.907C179.707 165.719 180.135 165.573 180.604 165.467C181.084 165.35 181.611 165.291 182.186 165.291C183.205 165.291 184.119 165.461 184.928 165.801C185.736 166.129 186.416 166.586 186.967 167.172C187.529 167.758 187.957 168.444 188.25 169.229C188.543 170.014 188.689 170.864 188.689 171.778V184.487H183.838V173.536C183.838 172.868 183.762 172.305 183.609 171.848C183.457 171.379 183.246 171.004 182.977 170.723C182.719 170.43 182.408 170.219 182.045 170.09C181.693 169.95 181.307 169.879 180.885 169.879C180.393 169.879 179.93 169.967 179.496 170.143C179.074 170.319 178.705 170.588 178.389 170.952C178.072 171.303 177.826 171.748 177.65 172.287C177.475 172.827 177.387 173.459 177.387 174.186V184.487H172.535V165.661ZM198.832 176.84C198.234 176.934 197.754 177.145 197.391 177.473C197.027 177.789 196.846 178.223 196.846 178.774C196.846 179.383 197.068 179.911 197.514 180.356C197.959 180.789 198.615 181.006 199.482 181.006C200.396 181.006 201.117 180.743 201.645 180.215C202.172 179.688 202.436 178.991 202.436 178.123V176.225L198.832 176.84ZM203.227 182.711C203.027 182.934 202.781 183.174 202.488 183.432C202.207 183.678 201.867 183.907 201.469 184.118C201.082 184.317 200.625 184.487 200.098 184.627C199.57 184.768 198.979 184.838 198.322 184.838C197.385 184.838 196.518 184.692 195.721 184.399C194.936 184.094 194.244 183.672 193.646 183.133C193.049 182.594 192.58 181.973 192.24 181.27C191.9 180.555 191.73 179.782 191.73 178.95C191.73 177.438 192.199 176.202 193.137 175.241C194.074 174.28 195.369 173.676 197.021 173.43L202.436 172.639V172.287C202.436 171.444 202.178 170.776 201.662 170.284C201.146 169.791 200.309 169.545 199.148 169.545C198.668 169.545 198.182 169.604 197.689 169.721C197.197 169.827 196.723 169.95 196.266 170.09C195.82 170.231 195.404 170.395 195.018 170.582C194.631 170.758 194.291 170.916 193.998 171.057L192.1 167.348C193.178 166.75 194.373 166.258 195.686 165.871C197.01 165.485 198.381 165.291 199.799 165.291C200.666 165.291 201.539 165.385 202.418 165.573C203.309 165.748 204.111 166.077 204.826 166.557C205.553 167.037 206.145 167.694 206.602 168.526C207.059 169.346 207.287 170.395 207.287 171.672V179.407C207.287 179.957 207.428 180.368 207.709 180.637C208.002 180.895 208.4 181.135 208.904 181.358L206.707 184.838C205.816 184.745 205.102 184.516 204.562 184.153C204.023 183.778 203.578 183.297 203.227 182.711ZM211.277 159.28H216.129V179.371C216.129 179.77 216.24 180.075 216.463 180.286C216.697 180.496 217.066 180.602 217.57 180.602C217.805 180.602 218.004 180.59 218.168 180.567C218.344 180.532 218.566 180.485 218.836 180.426L219.223 184.557C218.895 184.604 218.543 184.651 218.168 184.698C217.852 184.733 217.482 184.762 217.061 184.786C216.65 184.821 216.223 184.838 215.777 184.838C215.086 184.838 214.465 184.75 213.914 184.575C213.363 184.399 212.889 184.141 212.49 183.801C212.104 183.45 211.805 183.016 211.594 182.5C211.383 181.985 211.277 181.387 211.277 180.707V159.28ZM39.5742 217.403C39.9023 217.778 40.3008 218.147 40.7695 218.51C41.2383 218.873 41.7539 219.202 42.3164 219.495C42.8906 219.776 43.5117 220.004 44.1797 220.18C44.8477 220.344 45.5684 220.426 46.3418 220.426C47.7832 220.426 48.8848 220.127 49.6465 219.53C50.4199 218.92 50.8066 218.182 50.8066 217.315C50.8066 216.412 50.4668 215.727 49.7871 215.258C49.1191 214.789 48.0527 214.42 46.5879 214.151L45.7969 214.01C44.7422 213.823 43.6934 213.577 42.6504 213.272C41.6074 212.967 40.6641 212.528 39.8203 211.953C38.9766 211.379 38.291 210.647 37.7637 209.756C37.2363 208.854 36.9727 207.717 36.9727 206.346C36.9727 205.549 37.1484 204.717 37.5 203.85C37.8516 202.971 38.4082 202.168 39.1699 201.442C39.9434 200.703 40.9336 200.1 42.1406 199.631C43.3594 199.162 44.8301 198.928 46.5527 198.928C48.5918 198.928 50.4082 199.268 52.002 199.948C53.6074 200.616 54.9023 201.5 55.8867 202.602L52.4941 205.766C51.8027 205.004 50.9121 204.407 49.8223 203.973C48.7441 203.539 47.6309 203.323 46.4824 203.323C45.1582 203.323 44.1211 203.575 43.3711 204.078C42.6328 204.582 42.2637 205.239 42.2637 206.047C42.2637 206.575 42.3809 207.014 42.6152 207.366C42.8613 207.717 43.2012 208.01 43.6348 208.245C44.0684 208.467 44.5898 208.655 45.1992 208.807C45.8086 208.959 46.4883 209.112 47.2383 209.264L47.6426 209.334C48.6504 209.522 49.6523 209.762 50.6484 210.055C51.6445 210.336 52.5469 210.758 53.3555 211.321C54.1758 211.871 54.8379 212.598 55.3418 213.5C55.8457 214.391 56.0977 215.534 56.0977 216.928C56.0977 218.194 55.834 219.313 55.3066 220.286C54.7793 221.258 54.082 222.09 53.2148 222.782C52.3477 223.461 51.3457 223.977 50.209 224.328C49.0723 224.668 47.8887 224.838 46.6582 224.838C45.416 224.838 44.2617 224.733 43.1953 224.522C42.1406 224.311 41.1797 224.012 40.3125 223.625C39.457 223.239 38.6895 222.805 38.0098 222.325C37.3418 221.844 36.7559 221.328 36.252 220.778L39.5742 217.403ZM63.9375 216.752C64.0195 217.315 64.1953 217.83 64.4648 218.299C64.7461 218.768 65.0977 219.172 65.5195 219.512C65.9414 219.84 66.4277 220.098 66.9785 220.286C67.5293 220.473 68.1152 220.567 68.7363 220.567C69.4512 220.567 70.2246 220.432 71.0566 220.162C71.8887 219.881 72.6504 219.477 73.3418 218.95L75.6797 222.36C74.8008 223.098 73.7227 223.696 72.4453 224.153C71.168 224.61 69.8086 224.838 68.3672 224.838C67.0664 224.838 65.8418 224.616 64.6934 224.17C63.5449 223.725 62.5371 223.08 61.6699 222.237C60.8145 221.393 60.1348 220.368 59.6309 219.161C59.1387 217.953 58.8926 216.594 58.8926 215.082C58.8926 213.7 59.1094 212.411 59.543 211.215C59.9883 210.02 60.6035 208.983 61.3887 208.104C62.1855 207.225 63.1348 206.539 64.2363 206.047C65.3379 205.543 66.5566 205.291 67.8926 205.291C69.1348 205.291 70.2891 205.52 71.3555 205.977C72.4219 206.422 73.3477 207.055 74.1328 207.875C74.918 208.684 75.5332 209.657 75.9785 210.793C76.4238 211.93 76.6465 213.184 76.6465 214.555V216.752H63.9375ZM67.875 209.51C66.832 209.51 65.9473 209.862 65.2207 210.565C64.5059 211.256 64.0898 212.094 63.9727 213.078H71.5664C71.543 212.082 71.1797 211.239 70.4766 210.547C69.7734 209.856 68.9062 209.51 67.875 209.51ZM83.7656 215.17C83.7656 215.78 83.8477 216.395 84.0117 217.016C84.1758 217.625 84.4277 218.176 84.7676 218.668C85.1074 219.161 85.541 219.565 86.0684 219.881C86.6074 220.186 87.2461 220.338 87.9844 220.338C88.4648 220.338 88.8984 220.274 89.2852 220.145C89.6836 220.016 90.0352 219.84 90.3398 219.618C90.6562 219.383 90.9316 219.114 91.166 218.809C91.4121 218.493 91.623 218.153 91.7988 217.789L96.0527 219.987C95.748 220.725 95.3262 221.393 94.7871 221.991C94.2598 222.588 93.6445 223.098 92.9414 223.52C92.2383 223.942 91.459 224.264 90.6035 224.487C89.748 224.721 88.8398 224.838 87.8789 224.838C86.5547 224.838 85.3359 224.592 84.2227 224.1C83.1094 223.596 82.1484 222.911 81.3398 222.043C80.5312 221.176 79.8984 220.151 79.4414 218.967C78.9844 217.772 78.7559 216.477 78.7559 215.082C78.7559 213.7 78.9844 212.411 79.4414 211.215C79.8984 210.02 80.5312 208.983 81.3398 208.104C82.1484 207.225 83.1094 206.539 84.2227 206.047C85.3359 205.543 86.5547 205.291 87.8789 205.291C88.8398 205.291 89.748 205.409 90.6035 205.643C91.459 205.866 92.2383 206.194 92.9414 206.627C93.6445 207.049 94.2598 207.559 94.7871 208.157C95.3262 208.754 95.748 209.422 96.0527 210.161L91.7988 212.358C91.623 211.995 91.4121 211.661 91.166 211.356C90.9316 211.039 90.6562 210.77 90.3398 210.547C90.0352 210.313 89.6836 210.131 89.2852 210.002C88.8984 209.862 88.4648 209.791 87.9844 209.791C87.2461 209.791 86.6074 209.95 86.0684 210.266C85.541 210.571 85.1074 210.975 84.7676 211.479C84.4277 211.971 84.1758 212.528 84.0117 213.149C83.8477 213.77 83.7656 214.391 83.7656 215.012V215.17ZM115.055 224.487H110.203V222.87C109.934 223.127 109.641 223.379 109.324 223.625C109.008 223.86 108.656 224.071 108.27 224.258C107.883 224.434 107.449 224.575 106.969 224.68C106.5 224.786 105.979 224.838 105.404 224.838C104.385 224.838 103.471 224.674 102.662 224.346C101.854 224.006 101.168 223.549 100.605 222.975C100.055 222.389 99.6328 221.703 99.3398 220.918C99.0469 220.133 98.9004 219.284 98.9004 218.37V205.661H103.752V216.594C103.752 217.262 103.822 217.83 103.963 218.299C104.115 218.768 104.32 219.149 104.578 219.442C104.848 219.723 105.164 219.934 105.527 220.075C105.891 220.203 106.283 220.268 106.705 220.268C107.197 220.268 107.654 220.18 108.076 220.004C108.51 219.828 108.885 219.565 109.201 219.213C109.518 218.85 109.764 218.399 109.939 217.86C110.115 217.321 110.203 216.688 110.203 215.961V205.661H115.055V224.487ZM129.838 210.371H129.328C128.637 210.371 127.975 210.442 127.342 210.582C126.721 210.723 126.17 210.981 125.689 211.356C125.209 211.719 124.822 212.223 124.529 212.868C124.248 213.512 124.107 214.338 124.107 215.346V224.487H119.256V205.661H124.107V207.787C124.307 207.471 124.564 207.166 124.881 206.873C125.197 206.58 125.566 206.323 125.988 206.1C126.41 205.866 126.885 205.678 127.412 205.537C127.939 205.397 128.508 205.327 129.117 205.327H129.838V210.371ZM137.713 224.487H132.861V205.661H137.713V224.487ZM132.352 200.721C132.352 200.323 132.428 199.948 132.58 199.596C132.732 199.233 132.938 198.922 133.195 198.664C133.465 198.395 133.775 198.184 134.127 198.032C134.479 197.879 134.859 197.803 135.27 197.803C135.668 197.803 136.043 197.879 136.395 198.032C136.758 198.184 137.068 198.395 137.326 198.664C137.596 198.922 137.807 199.233 137.959 199.596C138.111 199.948 138.188 200.323 138.188 200.721C138.188 201.131 138.111 201.512 137.959 201.864C137.807 202.215 137.596 202.526 137.326 202.795C137.068 203.053 136.758 203.258 136.395 203.411C136.043 203.563 135.668 203.639 135.27 203.639C134.859 203.639 134.479 203.563 134.127 203.411C133.775 203.258 133.465 203.053 133.195 202.795C132.938 202.526 132.732 202.215 132.58 201.864C132.428 201.512 132.352 201.131 132.352 200.721ZM148.84 218.879C148.84 219.102 148.869 219.313 148.928 219.512C148.986 219.711 149.086 219.887 149.227 220.039C149.379 220.18 149.59 220.291 149.859 220.373C150.129 220.455 150.475 220.496 150.896 220.496C151.072 220.496 151.271 220.491 151.494 220.479C151.717 220.455 151.939 220.432 152.162 220.409C152.385 220.385 152.59 220.356 152.777 220.321C152.977 220.286 153.141 220.256 153.27 220.233L153.709 224.522C153.252 224.58 152.777 224.633 152.285 224.68C151.863 224.727 151.395 224.762 150.879 224.786C150.363 224.821 149.842 224.838 149.314 224.838C147.639 224.838 146.332 224.457 145.395 223.696C144.457 222.934 143.988 221.721 143.988 220.057V209.879H140.596V205.661H143.988V200.334L148.84 199.034V205.661H153.779V209.879H148.84V218.879ZM159.422 226.684C159.973 226.684 160.377 226.584 160.635 226.385C160.904 226.186 161.115 225.864 161.268 225.418L161.443 224.838L154.922 205.661H160.318L164.062 218.651L167.174 205.661H172.5L166.154 226.825C165.943 227.528 165.65 228.131 165.275 228.635C164.9 229.139 164.455 229.549 163.939 229.866C163.424 230.194 162.85 230.434 162.217 230.586C161.596 230.739 160.928 230.815 160.213 230.815C159.92 230.815 159.58 230.803 159.193 230.78C158.818 230.756 158.426 230.721 158.016 230.674C157.617 230.639 157.219 230.592 156.82 230.534C156.434 230.475 156.076 230.405 155.748 230.323L156.662 226.35C156.943 226.42 157.236 226.479 157.541 226.526C157.811 226.573 158.104 226.608 158.42 226.631C158.748 226.666 159.082 226.684 159.422 226.684ZM181.043 199.28H190.799C192.299 199.28 193.623 199.496 194.771 199.93C195.92 200.364 196.881 200.944 197.654 201.67C198.428 202.397 199.014 203.235 199.412 204.184C199.811 205.121 200.01 206.106 200.01 207.137C200.01 207.969 199.881 208.76 199.623 209.51C199.377 210.248 199.031 210.922 198.586 211.532C198.152 212.129 197.637 212.651 197.039 213.096C196.441 213.53 195.797 213.87 195.105 214.116L200.625 224.487H194.754L190.184 215.416H186.141V224.487H181.043V199.28ZM194.684 207.313C194.684 206.809 194.59 206.34 194.402 205.907C194.227 205.473 193.951 205.098 193.576 204.782C193.213 204.465 192.756 204.219 192.205 204.043C191.654 203.868 191.016 203.78 190.289 203.78H186.141V210.881H190.289C191.016 210.881 191.654 210.793 192.205 210.618C192.756 210.43 193.213 210.178 193.576 209.862C193.951 209.534 194.227 209.153 194.402 208.719C194.59 208.286 194.684 207.817 194.684 207.313ZM208.518 224.487H203.666V205.661H208.518V224.487ZM203.156 200.721C203.156 200.323 203.232 199.948 203.385 199.596C203.537 199.233 203.742 198.922 204 198.664C204.27 198.395 204.58 198.184 204.932 198.032C205.283 197.879 205.664 197.803 206.074 197.803C206.473 197.803 206.848 197.879 207.199 198.032C207.562 198.184 207.873 198.395 208.131 198.664C208.4 198.922 208.611 199.233 208.764 199.596C208.916 199.948 208.992 200.323 208.992 200.721C208.992 201.131 208.916 201.512 208.764 201.864C208.611 202.215 208.4 202.526 208.131 202.795C207.873 203.053 207.562 203.258 207.199 203.411C206.848 203.563 206.473 203.639 206.074 203.639C205.664 203.639 205.283 203.563 204.932 203.411C204.58 203.258 204.27 203.053 204 202.795C203.742 202.526 203.537 202.215 203.385 201.864C203.232 201.512 203.156 201.131 203.156 200.721ZM214.037 218.475C214.729 219.096 215.555 219.629 216.516 220.075C217.477 220.52 218.449 220.743 219.434 220.743C220.148 220.743 220.711 220.608 221.121 220.338C221.531 220.057 221.736 219.7 221.736 219.266C221.736 218.528 220.945 217.953 219.363 217.543L217.992 217.174C217.312 217.01 216.627 216.787 215.936 216.506C215.244 216.213 214.605 215.832 214.02 215.364C213.445 214.895 212.977 214.327 212.613 213.659C212.262 212.979 212.086 212.147 212.086 211.162C212.086 210.377 212.256 209.633 212.596 208.93C212.947 208.215 213.439 207.588 214.072 207.049C214.717 206.51 215.496 206.082 216.41 205.766C217.324 205.45 218.344 205.291 219.469 205.291C221.074 205.291 222.504 205.543 223.758 206.047C225.023 206.551 226.02 207.12 226.746 207.752L224.215 210.987C223.617 210.553 222.908 210.184 222.088 209.879C221.279 209.563 220.465 209.405 219.645 209.405C218.883 209.405 218.291 209.545 217.869 209.827C217.447 210.096 217.236 210.424 217.236 210.811C217.236 211.221 217.418 211.555 217.781 211.813C218.156 212.059 218.695 212.276 219.398 212.463L221.438 213.043C223.383 213.594 224.777 214.338 225.621 215.276C226.465 216.213 226.887 217.397 226.887 218.827C226.887 219.623 226.723 220.385 226.395 221.112C226.066 221.827 225.586 222.465 224.953 223.028C224.32 223.59 223.535 224.036 222.598 224.364C221.66 224.68 220.594 224.838 219.398 224.838C218.484 224.838 217.623 224.756 216.814 224.592C216.018 224.428 215.273 224.205 214.582 223.924C213.902 223.631 213.287 223.303 212.736 222.94C212.186 222.577 211.717 222.213 211.33 221.85L214.037 218.475ZM234.885 213.043L241.16 205.661H247.207L240.404 213.36L247.4 224.487H241.564L236.871 216.823L234.885 218.985V224.487H230.033V199.28H234.885V213.043ZM250.846 218.475C251.537 219.096 252.363 219.629 253.324 220.075C254.285 220.52 255.258 220.743 256.242 220.743C256.957 220.743 257.52 220.608 257.93 220.338C258.34 220.057 258.545 219.7 258.545 219.266C258.545 218.528 257.754 217.953 256.172 217.543L254.801 217.174C254.121 217.01 253.436 216.787 252.744 216.506C252.053 216.213 251.414 215.832 250.828 215.364C250.254 214.895 249.785 214.327 249.422 213.659C249.07 212.979 248.895 212.147 248.895 211.162C248.895 210.377 249.064 209.633 249.404 208.93C249.756 208.215 250.248 207.588 250.881 207.049C251.525 206.51 252.305 206.082 253.219 205.766C254.133 205.45 255.152 205.291 256.277 205.291C257.883 205.291 259.312 205.543 260.566 206.047C261.832 206.551 262.828 207.12 263.555 207.752L261.023 210.987C260.426 210.553 259.717 210.184 258.896 209.879C258.088 209.563 257.273 209.405 256.453 209.405C255.691 209.405 255.1 209.545 254.678 209.827C254.256 210.096 254.045 210.424 254.045 210.811C254.045 211.221 254.227 211.555 254.59 211.813C254.965 212.059 255.504 212.276 256.207 212.463L258.246 213.043C260.191 213.594 261.586 214.338 262.43 215.276C263.273 216.213 263.695 217.397 263.695 218.827C263.695 219.623 263.531 220.385 263.203 221.112C262.875 221.827 262.395 222.465 261.762 223.028C261.129 223.59 260.344 224.036 259.406 224.364C258.469 224.68 257.402 224.838 256.207 224.838C255.293 224.838 254.432 224.756 253.623 224.592C252.826 224.428 252.082 224.205 251.391 223.924C250.711 223.631 250.096 223.303 249.545 222.94C248.994 222.577 248.525 222.213 248.139 221.85L250.846 218.475Z" fill="white"/>
</svg>
